$MeshFormat
4.1 0 8
$EndMeshFormat
$PhysicalNames
3
0 1 "anchor"
1 2 "inlet"
1 3 "freeFlow"
$EndPhysicalNames
$Entities
7 7 1 0
1 0 0 0 0 
2 1 0 0 0 
3 1 1 0 0 
4 0 1 0 0 
5 0.375 0 0 0 
6 0.625 0 0 0 
7 0.5 0 0 1 1 
1 0 0 0 0 1 0 1 3 2 1 -4 
2 0 1 0 1 1 0 1 3 2 4 -3 
3 1 0 0 1 1 0 1 3 2 3 -2 
4 0.625 0 0 1 0 0 1 3 2 2 -6 
5 0.5 0 0 0.625 0 0 1 2 2 6 -7 
6 0.375 0 0 0.5 0 0 1 3 2 7 -5 
7 0 0 0 0.375 0 0 0 2 5 -1 
1 0 0 0 1 1 0 1 7 7 7 1 2 3 4 5 6 
$EndEntities
$Nodes
15 425 1 425
0 1 0 1
1
0 0 0
0 2 0 1
2
1 0 0
0 3 0 1
3
1 1 0
0 4 0 1
4
0 1 0
0 5 0 1
5
0.375 0 0
0 6 0 1
6
0.625 0 0
0 7 0 1
7
0.5 0 0
1 1 0 9
8
9
10
11
12
13
14
15
16
0 0.09999999999981467 0
0 0.1999999999995579 0
0 0.2999999999992664 0
0 0.3999999999989749 0
0 0.4999999999986943 0
0 0.5999999999989468 0
0 0.69999999999921 0
0 0.7999999999994734 0
0 0.8999999999997368 0
1 2 0 9
17
18
19
20
21
22
23
24
25
0.09999999999981467 1 0
0.1999999999995579 1 0
0.2999999999992664 1 0
0.3999999999989749 1 0
0.4999999999986943 1 0
0.5999999999989468 1 0
0.69999999999921 1 0
0.7999999999994734 1 0
0.8999999999997368 1 0
1 3 0 9
26
27
28
29
30
31
32
33
34
1 0.8999999999995836 0
1 0.7999999999999998 0
1 0.7000000000006934 0
1 0.6000000000013869 0
1 0.5000000000020587 0
1 0.4000000000016644 0
1 0.3000000000012483 0
1 0.2000000000008322 0
1 0.100000000000416 0
1 4 0 9
35
36
37
38
39
40
41
42
43
0.9143034324259205 0 0
0.8462322312895324 0 0
0.7921613498535908 0 0
0.7492113263071247 0 0
0.7150949037345102 0 0
0.6879952691928611 0 0
0.6664692641903689 0 0
0.6493705504744619 0 0
0.6357885599149204 0 0
1 5 0 12
44
45
46
47
48
49
50
51
52
53
54
55
0.6153846153846154 0 0
0.6057692307692307 0 0
0.5961538461538461 0 0
0.5865384615384616 0 0
0.5769230769230769 0 0
0.5673076923076922 0 0
0.5576923076923076 0 0
0.5480769230769229 0 0
0.5384615384615383 0 0
0.5288461538461537 0 0
0.5192307692307692 0 0
0.5096153846153846 0 0
1 6 0 12
56
57
58
59
60
61
62
63
64
65
66
67
0.4903846153846154 0 0
0.4807692307692308 0 0
0.4711538461538462 0 0
0.4615384615384616 0 0
0.451923076923077 0 0
0.4423076923076924 0 0
0.4326923076923078 0 0
0.4230769230769231 0 0
0.4134615384615385 0 0
0.4038461538461539 0 0
0.3942307692307693 0 0
0.3846153846153846 0 0
1 7 0 9
68
69
70
71
72
73
74
75
76
0.3642114400851986 0 0
0.3506294495258242 0 0
0.3335307358098966 0 0
0.3120047308076063 0 0
0.2849050962659282 0 0
0.2507886736932385 0 0
0.2078386501469777 0 0
0.1537677687110658 0 0
0.08569656757445437 0 0
2 1 0 349
77
78
79
80
81
82
83
84
85
86
87
88
89
90
91
92
93
94
95
96
97
98
99
100
101
102
103
104
105
106
107
108
109
110
111
112
113
114
115
116
117
118
119
120
121
122
123
124
125
126
127
128
129
130
131
132
133
134
135
136
137
138
139
140
141
142
143
144
145
146
147
148
149
150
151
152
153
154
155
156
157
158
159
160
161
162
163
164
165
166
167
168
169
170
171
172
173
174
175
176
177
178
179
180
181
182
183
184
185
186
187
188
189
190
191
192
193
194
195
196
197
198
199
200
201
202
203
204
205
206
207
208
209
210
211
212
213
214
215
216
217
218
219
220
221
222
223
224
225
226
227
228
229
230
231
232
233
234
235
236
237
238
239
240
241
242
243
244
245
246
247
248
249
250
251
252
253
254
255
256
257
258
259
260
261
262
263
264
265
266
267
268
269
270
271
272
273
274
275
276
277
278
279
280
281
282
283
284
285
286
287
288
289
290
291
292
293
294
295
296
297
298
299
300
301
302
303
304
305
306
307
308
309
310
311
312
313
314
315
316
317
318
319
320
321
322
323
324
325
326
327
328
329
330
331
332
333
334
335
336
337
338
339
340
341
342
343
344
345
346
347
348
349
350
351
352
353
354
355
356
357
358
359
360
361
362
363
364
365
366
367
368
369
370
371
372
373
374
375
376
377
378
379
380
381
382
383
384
385
386
387
388
389
390
391
392
393
394
395
396
397
398
399
400
401
402
403
404
405
406
407
408
409
410
411
412
413
414
415
416
417
418
419
420
421
422
423
424
425
0.5051518128085598 0.00924507521362956 0
0.4278424667000758 0.009784262344796494 0
0.5817307692307693 0.008336097557906139 0
0.3574204448055114 0.01055275790742357 0
0.6420706305831082 0.009447212692248535 0
0.5432692307692305 0.008327167344081111 0
0.4663461538461539 0.008558782225377357 0
0.2989919314000058 0.02086280306544193 0
0.7024180174680872 0.02173411517500703 0
0.9069321859201802 0.4565216252273297 0
0.07928850965280061 0.447532638386242 0
0.3986287664258075 0.01106973140786678 0
0.6116428466048174 0.01008108688488982 0
0.5488604261289159 0.9137229104108375 0
0.2293136619201082 0.03337075005919789 0
0.7703675703890875 0.03260901288024912 0
0.9218395184987338 0.6471669850922089 0
0.0799944996881142 0.6530075278169145 0
0.08591292867993479 0.2531634087943221 0
0.9195978709306987 0.2389836290053257 0
0.342812587718481 0.9006893321581803 0
0.4855769230769234 0.008327167344081111 0
0.5238424179336811 0.008509646841303601 0
0.4468450905043125 0.008609332918212217 0
0.5626945357750877 0.009217448493927843 0
0.3798161520223078 0.01038788962048329 0
0.7435521357813921 0.916345164344577 0
0.1270804490492692 0.0464248251190497 0
0.8714795041851613 0.05895578102795569 0
0.08459132732666995 0.8521037040807504 0
0.9153978864530856 0.8495844338143163 0
0.3227677333087514 0.01672499381200252 0
0.3147653906529395 0.03944767118420288 0
0.2878731835899329 0.04628783995525238 0
0.3071482735079609 0.06612101698958667 0
0.3309583938035052 0.05539845422680539 0
0.3318569571337588 0.08548245315968264 0
0.2976696380411998 0.09516783824263009 0
0.3213928769101627 0.1189885412436466 0
0.3553681383123702 0.1095508428268012 0
0.3470586623229226 0.1427647388354813 0
0.3826706311037116 0.1315717387375828 0
0.3753869382980124 0.1689004962910579 0
0.4127195545797587 0.1559597960825446 0
0.4051261937556884 0.1955624424621516 0
0.445175476470592 0.1819684325470226 0
0.4379694258376906 0.2237626986873064 0
0.4798832054910687 0.2093129049223746 0
0.4710199494053108 0.2550721790630556 0
0.5156254099678476 0.2390563406490463 0
0.5079501183087262 0.2884622165465034 0
0.4597356071271431 0.3051943585768455 0
0.4989121370025152 0.3418383875081328 0
0.3649183389359001 0.2104421881127997 0
0.4445810561751302 0.3594681460371749 0
0.4875649327131635 0.3999752133963569 0
0.5215128011759719 0.1874326048049693 0
0.5592976631594998 0.2212047677815721 0
0.4285786991965862 0.4184760246190396 0
0.4755298306596794 0.4631836944594109 0
0.5652018248026544 0.1704447895544573 0
0.5504989865504234 0.3755442464844797 0
0.6029106577145362 0.2046740565554108 0
0.4533187508335104 0.1390841462873326 0
0.4113177927369879 0.4835513609834555 0
0.462295549530123 0.5306701264088968 0
0.6075008135357407 0.1595343481816658 0
0.6451811407488881 0.1887515658056908 0
0.3820506362944358 0.3687285437518396 0
0.2858115166809045 0.1301991104398626 0
0.5793952407755351 0.1315443716679039 0
0.3942079023715713 0.5536775049032774 0
0.5297178842259437 0.5072364246450783 0
0.6401144115810715 0.2386233668616611 0
0.5162944918865972 0.5800831022327162 0
0.5890426937875325 0.5540432974711259 0
0.612835135028871 0.119736402632185 0
0.5853050833653604 0.09400098795184175 0
0.3869730246363373 0.09508387709986389 0
0.6895827867835452 0.2194715981719442 0
0.6816136310408291 0.274775136088841 0
0.5560973217457341 0.1069741120895535 0
0.5727819849399876 0.628204262448404 0
0.4963056853354081 0.6542891611705945 0
0.5605267490136852 0.07865789846308224 0
0.5351492465599026 0.08755018459495939 0
0.6166245679882447 0.08626437825764428 0
0.6425932953167672 0.1061543088699395 0
0.3402149165991719 0.5021733324448637 0
0.6490496138756204 0.6048557979204783 0
0.6631735275466872 0.5257664306845267 0
0.3212354623056262 0.5781813042020074 0
0.5392847248842845 0.06011674534284096 0
0.5173948269975339 0.06985969294291819 0
0.5613405015006647 0.05429429848922247 0
0.6335694746291424 0.6787267509383972 0
0.6436387294429929 0.0742248179918296 0
0.672190225922862 0.09070164210509031 0
0.5276690919961231 0.1186875123889789 0
0.7364483545297893 0.2530814294597584 0
0.7285156225360777 0.3139977447562338 0
0.7391926784566354 0.1939925099928935 0
0.5201167828246691 0.04843154413155352 0
0.500186907258502 0.05223437403058255 0
0.4957353776199126 0.07566359837002419 0
0.4804669965075549 0.06001720148252469 0
0.6172991584553414 0.05778467048595234 0
0.4716951095456197 0.08641027320211205 0
0.4587521131123019 0.06571429474793841 0
0.7248121237885438 0.5772754924828597 0
0.7380803093125771 0.4982130806422803 0
0.466248413307459 0.04560200756985661 0
0.445625664103821 0.04675013431679724 0
0.435264832051496 0.0720614138632706 0
0.4244896823395603 0.05243903579631509 0
0.2630739350323363 0.5214920081318285 0
0.672591120936152 0.3317474617728894 0
0.25719689089691 0.09666677225632178 0
0.2448159436581414 0.1405279373529459 0
0.2759055366350031 0.1735989785876307 0
0.2304196612289615 0.186081052060719 0
0.2670086637615189 0.2258000870407482 0
0.1947885652487402 0.1481252593083709 0
0.2878397856537075 0.4509363825237918 0
0.21259463532488 0.2400123434002489 0
0.2543870209275734 0.2840083055907383 0
0.1929102953418209 0.3065858081334503 0
0.2424620081909591 0.5999528145998915 0
0.3039403315668734 0.6592320469705123 0
0.5064227131462604 0.03361071965852957 0
0.7888707287864378 0.2919152098129459 0
0.7769035674585003 0.3555892131044263 0
0.6415139847399909 0.04680415563664209 0
0.223200181940988 0.682953178603716 0
0.28246403105554 0.7449516253859119 0
0.7985666522044902 0.5488166971835455 0
0.3705093594467452 0.7284675911442541 0
0.6703512143318132 0.1235174689967516 0
0.7048263582890819 0.1094104337247017 0
0.4305102860951051 0.03489662904484111 0
0.4134163541726916 0.03758440181997123 0
0.4053900113759056 0.05410450046836494 0
0.3951690323258681 0.03882133962596913 0
0.385423248838642 0.05616306842336022 0
0.3732778233602086 0.03789279581339679 0
0.6219055760629966 0.03499489924624728 0
0.606060165323134 0.04127176123451558 0
0.5222147647177461 0.02983737110797304 0
0.7873816602825683 0.6322596575050704 0
0.6786143469813423 0.4404578127915526 0
0.8469157133840945 0.3317593631975762 0
0.181460728391984 0.5414569936680839 0
0.4907381915241931 0.09846311103389135 0
0.7048317188569614 0.06992724015503396 0
0.7423579718994464 0.09086405167909872 0
0.3134477410748558 0.2648778769853294 0
0.3006921872855883 0.3254182519903812 0
0.5477427730837056 0.04073680957671816 0
0.5637838834716838 0.03320742389723336 0
0.2050641826599641 0.7710351534488045 0
0.5981511916953069 0.07116794373373851 0
0.5491986192490207 0.0259091034244735 0
0.4828847234739373 0.0415439439661155 0
0.4715791790002088 0.02839365854887117 0
0.456399606172085 0.03154011542020665 0
0.4926363969767221 0.02475425245468291 0
0.5786813975045044 0.04429780391785595 0
0.5796024239976822 0.02778932882599203 0
0.6775426726403067 0.01846245874073139 0
0.3668940046542971 0.06056943860352094 0
0.4196787176342854 0.1161784046870392 0
0.07651815903558642 0.3522746957000243 0
0.163378988028077 0.3903587670611285 0
0.4518545967845061 0.1068545994708374 0
0.6687713727701525 0.05962254429635486 0
0.2664600546214845 0.8360089355892936 0
0.3584098883705517 0.3083733526846651 0
0.8161283275885118 0.4669862676821154 0
0.9194379636252745 0.1613168270608027 0
0.8521685203499241 0.1965040216283085 0
0.8485889183342864 0.1242068482614162 0
0.07766013644005164 0.1523888841216253 0
0.7406823732611607 0.1389353826727511 0
0.7829987967180818 0.1099913128121879 0
0.1849708185648604 0.0375604564788936 0
0.2190527876657608 0.06856046065269994 0
0.8175288299451041 0.0410997660488588 0
0.4818252193071382 0.1662195390935554 0
0.7328802245701 0.02539939152626261 0
0.5116801076205909 0.02157507361222584 0
0.9239394846378244 0.553460741837144 0
0.6017754899469724 0.4782313920072834 0
0.614347914757434 0.4039514977971708 0
0.4200583833897178 0.02078863711138552 0
0.4048156554998404 0.02343736239092608 0
0.3875709512855688 0.02182185152742451 0
0.0926350539471697 0.5497742979573697 0
0.4152417555495427 0.08753112741022359 0
0.6895183323709735 0.04230154024391118 0
0.1333840638741155 0.2004471871612128 0
0.3522642178588671 0.0466698064348454 0
0.6298794561581578 0.009902707166970608 0
0.3429355739107252 0.0137300152902437 0
0.9134746780827238 0.7501337462976088 0
0.8298527264850124 0.7920357640677897 0
0.08022406286476202 0.7504722282418625 0
0.4487294797684438 0.9118348138828388 0
0.5000575203739608 0.8296607687048885 0
0.5941878062286206 0.8313958292995167 0
0.5446749268459582 0.771030124690138 0
0.6477449711540515 0.914715906227984 0
0.6918130873744901 0.8260434711985607 0
0.4085039374760409 0.820068189517127 0
0.4720434360425625 0.739003518906435 0
0.607193385934732 0.02342781064934361 0
0.6561595084611583 0.01376107078369101 0
0.3712910035268729 0.02098101793633447 0
0.5344129594852681 0.1537372403188781 0
0.410935504659102 0.01227911580070633 0
0.2679897842015376 0.02605211727331519 0
0.256066158340012 0.05579131055999896 0
0.568560035148121 0.02070712974133744 0
0.4837397539536432 0.1368347215687603 0
0.5504074713249089 0.3221786339791006 0
0.6899569611680904 0.159346131938355 0
0.3785386377239329 0.6337037143433228 0
0.2104642801842753 0.4651255700829848 0
0.7925536909117845 0.1653935989010673 0
0.6375626266453394 0.02349948428837969 0
0.7601092115827767 0.4222749420538339 0
0.4336620235308464 0.01995338512742464 0
0.2397042889591713 0.3466515127061933 0
0.6317732540162766 0.2901656905939869 0
0.314838277930981 0.2063569373681594 0
0.7916908583506196 0.2287315180388463 0
0.8408406798976218 0.9040873019145848 0
0.4951923076923075 0.008327167344079641 0
0.5144230769230776 0.008327167344078925 0
0.5432391731422693 0.4380204114649633 0
0.4563073084567562 0.00921302092009477 0
0.4619064500031871 0.01909569656305239 0
0.4759615384615382 0.008576094878815405 0
0.48125859768705 0.0184711731940866 0
0.5528846153846143 0.008327167344080053 0
0.5333467111730232 0.008993156882160144 0
0.5390540998544512 0.01798881969314858 0
0.6618447496046534 0.03407520899828503 0
0.1773994449621535 0.8510448572339767 0
0.367073206977936 0.4365009814369838 0
0.710792958858857 0.6578169992615525 0
0.7736284978700168 0.7184933363611054 0
0.572356531051304 0.009161403594097835 0
0.9230691018447 0.3667517757250828 0
0.5529950966805418 0.2698599559702162 0
0.446928405575952 0.6058045612607745 0
0.4374999999999989 0.008327167344080223 0
0.5913461538461539 0.008666788786864707 0
0.6013765515771046 0.01014310820874047 0
0.596153846153848 0.01868296293134468 0
0.6198791844544219 0.01832017844087568 0
0.4262200196482289 0.265496899873146 0
0.3123892826984104 0.1541992758660911 0
0.2350222040868629 0.9183415590516248 0
0.3696057200425987 0.00866583388154302 0
0.451253243356087 0.01906363012350176 0
0.336738896904905 0.03299375634517522 0
0.1730619008547652 0.09520784638552451 0
0.4092026024531771 0.3157482028883722 0
0.3731782827300552 0.2618396145016895 0
0.1620923905436835 0.6212843328019194 0
0.3973884980023899 0.07435660657616108 0
0.3182387791950205 0.3898954306616269 0
0.6203101025695181 0.007851186740127962 0
0.850408035318424 0.2662524337396066 0
0.5953390646703054 0.2536985412028524 0
0.6963163827072506 0.7352909603614046 0
0.3889724047159677 0.008655894511154918 0
0.8383430179631272 0.3999805311650607 0
0.5116150128796486 0.09485356582565954 0
0.3429183000372453 0.1765327272947179 0
0.9457705435933882 0.05764593567840505 0
0.06802464380656556 0.06753662446253023 0
0.3635273569188421 0.08431905200589988 0
0.3559653491564561 0.02680952176458365 0
0.6398821763055076 0.1413439642037523 0
0.4503897800655019 0.08550595870024846 0
0.7157946441490667 0.3722080990534889 0
0.2807080198896184 0.07182547237715046 0
0.4999999999999986 0.01724104298139296 0
0.7411630845309474 0.05513617544928104 0
0.7811870703919128 0.06983548744467448 0
0.5377525898058494 0.02970565757524121 0
0.5292402254525865 0.01844342189715389 0
0.5783536567918884 0.06417749313603338 0
0.8471531833248009 0.6901361896444298 0
0.1569404865707051 0.2540607753533538 0
0.6101412403683674 0.3440961979841377 0
0.4186803187734357 0.007991468362044628 0
0.4714103837996276 0.01661908108204059 0
0.5576508651489043 0.01767445100536508 0
0.8561672806044497 0.5980314105699136 0
0.6184810223328677 0.7549320291833699 0
0.8226035700411587 0.08320017633164659 0
0.1367941315520141 0.9261040561215204 0
0.714085916804476 0.04223936159485888 0
0.4333857881472841 0.6772251620054502 0
0.1317286448649801 0.3128069095772409 0
0.1469510971282857 0.709392544450026 0
0.4155549558637789 0.06809853682286707 0
0.2439252244040503 0.408593532607145 0
0.917055385947622 0.1004250784057991 0
0.1178197896897971 0.1048763962734179 0
0.2177832176648635 0.1098176551911726 0
0.5771403216310608 0.01666139715365812 0
0.5924861674754373 0.0322480516120188 0
0.5864099470558252 0.01873077114463075 0
0.9267949192431389 0.926794919243098 0
0.3341499940636583 0.8060371347589534 0
0.443293085927606 0.02795710454058001 0
0.4838341618137392 0.02908314075130354 0
0.1454455120408613 0.4788496534311618 0
0.4014824521815126 0.2314207687274186 0
0.147097008841983 0.1488746168168918 0
0.5072974541105254 0.147237207566723 0
0.6622792950801039 0.3828662050278746 0
0.4990522512334914 0.1181352562761697 0
0.5197661515260581 0.01649968381240812 0
0.5334223270632509 0.04176562554686538 0
0.4909328450866003 0.01542416066366464 0
0.7702870913215137 0.8438508319323135 0
0.5520505903674651 0.1356216288898469 0
0.8592576752460412 0.5206416392708216 0
0.58813122541208 0.2959998039460587 0
0.5931734918756993 0.05361218883722078 0
0.9066285373850651 0.3032841318825877 0
0.5484114860812442 0.01564534176222966 0
0.4344859364170664 0.09362630082632384 0
0.475066442312494 0.1142970179731839 0
0.3405867268394125 0.3486012461697007 0
0.4424526897048907 0.01642686949645946 0
0.1841330262543864 0.1932602140472149 0
0.3491001860738541 0.06648784088615085 0
0.7523795571516567 0.7831428727842349 0
0.55459943155168 0.6994330880960269 0
0.4942513951792212 0.03590560147974932 0
0.06184106536358469 0.9381008230764309 0
0.379414870652003 0.07384204210003442 0
0.3407149037080479 0.2359698163114954 0
0.1348199679451559 0.8000143481016857 0
$EndNodes
$Elements
8 839 1 839
0 7 15 1
1 7 
1 1 1 10
2 1 8 
3 8 9 
4 9 10 
5 10 11 
6 11 12 
7 12 13 
8 13 14 
9 14 15 
10 15 16 
11 16 4 
1 2 1 10
12 4 17 
13 17 18 
14 18 19 
15 19 20 
16 20 21 
17 21 22 
18 22 23 
19 23 24 
20 24 25 
21 25 3 
1 3 1 10
22 3 26 
23 26 27 
24 27 28 
25 28 29 
26 29 30 
27 30 31 
28 31 32 
29 32 33 
30 33 34 
31 34 2 
1 4 1 10
32 2 35 
33 35 36 
34 36 37 
35 37 38 
36 38 39 
37 39 40 
38 40 41 
39 41 42 
40 42 43 
41 43 6 
1 5 1 13
42 6 44 
43 44 45 
44 45 46 
45 46 47 
46 47 48 
47 48 49 
48 49 50 
49 50 51 
50 51 52 
51 52 53 
52 53 54 
53 54 55 
54 55 7 
1 6 1 13
55 7 56 
56 56 57 
57 57 58 
58 58 59 
59 59 60 
60 60 61 
61 61 62 
62 62 63 
63 63 64 
64 64 65 
65 65 66 
66 66 67 
67 67 5 
2 1 2 772
68 292 81 305 
69 203 249 308 
70 269 138 315 
71 206 266 365 
72 292 305 323 
73 242 206 365 
74 343 199 389 
75 259 215 301 
76 268 269 315 
77 161 154 370 
78 64 65 295 
79 215 214 301 
80 233 308 348 
81 291 89 334 
82 154 237 370 
83 249 203 383 
84 9 95 258 
85 256 257 304 
86 348 308 386 
87 183 209 222 
88 301 214 361 
89 235 298 376 
90 271 88 272 
91 238 235 376 
92 270 78 374 
93 155 118 247 
94 262 343 389 
95 258 95 276 
96 234 235 238 
97 147 153 154 
98 169 171 234 
99 40 41 245 
100 262 194 297 
101 95 10 248 
102 188 239 240 
103 300 138 373 
104 213 289 290 
105 155 247 274 
106 291 334 335 
107 96 255 256 
108 169 234 404 
109 234 171 235 
110 163 173 183 
111 18 339 380 
112 160 290 420 
113 77 266 314 
114 206 179 224 
115 144 301 361 
116 257 260 304 
117 189 188 241 
118 178 259 301 
119 158 154 161 
120 169 161 171 
121 154 163 237 
122 272 88 353 
123 162 161 169 
124 140 122 264 
125 137 143 147 
126 170 169 179 
127 180 179 206 
128 358 258 388 
129 154 153 163 
130 199 343 399 
131 183 173 209 
132 75 104 261 
133 221 219 272 
134 222 209 305 
135 339 324 380 
136 179 169 404 
137 188 182 239 
138 221 272 293 
139 96 33 255 
140 305 209 323 
141 182 180 239 
142 250 184 362 
143 109 112 342 
144 256 255 257 
145 147 143 153 
146 183 222 223 
147 174 230 251 
148 95 248 383 
149 189 241 395 
150 120 140 247 
151 163 183 237 
152 78 270 307 
153 290 286 420 
154 112 277 342 
155 191 189 216 
156 247 140 250 
157 245 41 292 
158 138 269 373 
159 113 359 418 
160 183 223 410 
161 185 182 188 
162 239 180 421 
163 147 154 158 
164 206 224 266 
165 251 230 275 
166 8 9 258 
167 65 88 295 
168 275 245 323 
169 272 102 293 
170 289 213 394 
171 188 240 241 
172 255 34 387 
173 281 280 371 
174 80 293 340 
175 248 87 249 
176 257 105 379 
177 73 91 296 
178 252 97 394 
179 32 33 96 
180 158 161 162 
181 9 10 95 
182 140 264 299 
183 107 281 312 
184 235 243 244 
185 251 275 323 
186 124 133 264 
187 162 169 170 
188 118 120 247 
189 295 270 374 
190 228 273 346 
191 170 179 180 
192 344 337 345 
193 149 268 315 
194 327 281 371 
195 246 277 418 
196 101 298 328 
197 254 86 354 
198 116 118 155 
199 237 183 410 
200 191 216 217 
201 266 77 365 
202 308 249 386 
203 184 250 414 
204 185 188 189 
205 137 147 407 
206 93 29 267 
207 11 87 248 
208 149 152 268 
209 8 258 358 
210 241 240 317 
211 223 222 291 
212 256 304 311 
213 33 34 255 
214 273 94 346 
215 86 329 354 
216 217 216 270 
217 240 239 396 
218 97 252 339 
219 268 226 269 
220 120 122 140 
221 312 281 406 
222 264 133 400 
223 88 271 295 
224 219 217 271 
225 261 104 343 
226 368 322 369 
227 235 244 298 
228 289 284 290 
229 216 189 395 
230 208 306 354 
231 200 165 325 
232 30 31 86 
233 200 348 386 
234 122 124 264 
235 180 206 421 
236 285 287 288 
237 30 86 267 
238 13 94 273 
239 152 167 268 
240 283 284 289 
241 133 294 400 
242 167 226 268 
243 287 103 288 
244 43 6 278 
245 35 36 105 
246 10 11 248 
247 75 76 104 
248 133 134 137 
249 73 74 91 
250 37 38 92 
251 230 366 381 
252 113 116 359 
253 97 289 394 
254 23 103 287 
255 85 40 245 
256 167 187 226 
257 163 164 173 
258 137 139 143 
259 105 36 263 
260 244 243 391 
261 284 285 286 
262 133 137 294 
263 277 112 418 
264 71 72 84 
265 219 271 272 
266 232 253 345 
267 11 12 87 
268 226 363 401 
269 70 108 279 
270 39 40 85 
271 306 254 354 
272 92 38 265 
273 271 270 295 
274 285 288 378 
275 36 37 263 
276 102 272 353 
277 87 12 273 
278 37 92 263 
279 305 278 336 
280 89 291 336 
281 97 283 289 
282 32 96 411 
283 224 368 369 
284 124 126 133 
285 248 249 383 
286 253 145 344 
287 38 39 265 
288 283 90 284 
289 378 172 420 
290 28 93 280 
291 284 90 285 
292 274 190 385 
293 284 286 290 
294 22 23 287 
295 70 71 108 
296 253 344 345 
297 260 257 379 
298 235 171 243 
299 329 227 354 
300 391 335 392 
301 39 85 265 
302 34 357 387 
303 316 100 341 
304 296 91 297 
305 148 168 302 
306 94 14 282 
307 198 232 310 
308 206 242 421 
309 232 345 424 
310 71 84 108 
311 28 29 93 
312 29 30 267 
313 300 373 409 
314 226 306 363 
315 192 165 200 
316 107 280 281 
317 105 263 379 
318 97 20 283 
319 174 215 230 
320 304 178 311 
321 13 14 94 
322 198 202 232 
323 290 160 382 
324 91 262 297 
325 391 243 410 
326 293 80 360 
327 107 27 280 
328 294 137 407 
329 294 175 400 
330 266 224 403 
331 27 28 280 
332 12 13 273 
333 72 73 296 
334 21 90 283 
335 156 178 301 
336 86 254 408 
337 21 22 90 
338 74 75 261 
339 288 352 378 
340 232 233 253 
341 286 378 420 
342 109 111 112 
343 15 106 282 
344 279 342 360 
345 217 270 271 
346 14 15 282 
347 221 293 360 
348 181 180 182 
349 78 307 332 
350 19 20 97 
351 23 24 103 
352 190 274 413 
353 200 325 348 
354 168 205 302 
355 20 21 283 
356 194 262 389 
357 152 166 167 
358 26 27 107 
359 218 217 219 
360 15 16 106 
361 329 32 411 
362 250 140 414 
363 277 221 360 
364 167 186 187 
365 90 22 287 
366 184 182 185 
367 187 254 306 
368 116 155 359 
369 205 211 213 
370 31 32 329 
371 105 257 387 
372 156 176 178 
373 190 189 191 
374 285 90 287 
375 2 35 357 
376 76 1 358 
377 244 391 392 
378 187 212 254 
379 209 251 323 
380 220 219 221 
381 259 178 304 
382 108 84 109 
383 17 18 380 
384 205 213 302 
385 298 101 376 
386 226 187 306 
387 145 253 415 
388 80 279 360 
389 24 25 312 
390 317 316 341 
391 41 42 292 
392 163 153 164 
393 133 126 134 
394 293 102 340 
395 167 166 186 
396 113 115 116 
397 192 200 303 
398 108 109 342 
399 297 194 364 
400 246 221 277 
401 68 69 80 
402 19 97 339 
403 209 173 251 
404 93 267 377 
405 86 31 329 
406 224 369 403 
407 343 388 399 
408 222 305 336 
409 118 119 120 
410 187 186 212 
411 143 144 361 
412 175 294 407 
413 69 70 279 
414 157 150 309 
415 232 202 233 
416 196 310 338 
417 135 131 145 
418 321 99 369 
419 211 236 252 
420 137 134 139 
421 230 231 366 
422 136 142 149 
423 120 121 122 
424 96 256 350 
425 34 2 357 
426 1 8 358 
427 143 139 144 
428 171 161 370 
429 229 184 414 
430 168 204 205 
431 205 210 211 
432 270 216 307 
433 129 132 138 
434 103 24 312 
435 42 43 81 
436 211 210 236 
437 177 157 193 
438 159 151 160 
439 234 238 368 
440 122 123 124 
441 64 295 374 
442 127 129 300 
443 110 296 297 
444 149 151 152 
445 204 192 228 
446 104 358 388 
447 148 141 165 
448 168 165 192 
449 152 159 166 
450 116 117 118 
451 166 159 172 
452 245 292 323 
453 247 250 413 
454 193 157 309 
455 263 92 367 
456 205 204 210 
457 212 186 225 
458 173 174 251 
459 158 162 175 
460 228 192 303 
461 129 138 300 
462 400 175 402 
463 140 299 414 
464 170 180 181 
465 168 192 204 
466 120 119 121 
467 152 151 159 
468 145 131 344 
469 314 266 403 
470 279 108 342 
471 149 142 151 
472 122 121 123 
473 132 135 136 
474 55 7 77 
475 136 141 142 
476 230 215 231 
477 148 165 168 
478 7 56 313 
479 54 55 314 
480 129 131 132 
481 178 176 311 
482 280 93 371 
483 252 236 324 
484 56 57 98 
485 53 54 99 
486 144 156 301 
487 249 87 397 
488 3 26 393 
489 25 3 393 
490 309 150 351 
491 124 123 125 
492 191 217 218 
493 196 198 310 
494 136 135 141 
495 185 189 190 
496 124 125 126 
497 142 141 148 
498 136 149 315 
499 57 58 318 
500 52 53 321 
501 223 391 410 
502 181 182 184 
503 175 162 355 
504 132 131 135 
505 267 86 408 
506 186 166 326 
507 166 172 326 
508 112 111 113 
509 148 302 331 
510 118 117 119 
511 58 59 83 
512 51 52 82 
513 173 164 174 
514 126 125 127 
515 135 145 325 
516 273 228 397 
517 59 60 316 
518 50 51 320 
519 165 141 325 
520 225 326 327 
521 127 128 129 
522 60 61 100 
523 252 324 339 
524 49 50 101 
525 127 125 128 
526 129 128 131 
527 160 151 331 
528 338 310 356 
529 176 177 207 
530 84 72 296 
531 144 150 156 
532 322 321 369 
533 61 62 332 
534 48 49 328 
535 138 132 315 
536 103 312 406 
537 18 19 339 
538 198 201 202 
539 225 186 326 
540 207 208 227 
541 132 136 315 
542 207 177 208 
543 127 300 330 
544 213 211 394 
545 176 157 177 
546 233 202 308 
547 62 63 78 
548 47 48 79 
549 218 219 220 
550 109 110 111 
551 125 123 337 
552 116 115 117 
553 87 273 397 
554 362 190 413 
555 92 265 366 
556 156 157 176 
557 307 395 416 
558 151 142 331 
559 210 204 346 
560 85 245 275 
561 144 139 150 
562 303 249 397 
563 310 232 424 
564 46 47 333 
565 156 150 157 
566 202 201 203 
567 291 222 336 
568 142 148 331 
569 141 135 325 
570 220 221 246 
571 236 384 425 
572 42 81 292 
573 91 261 262 
574 325 145 348 
575 121 119 130 
576 184 185 362 
577 155 274 347 
578 202 203 308 
579 134 126 330 
580 278 6 349 
581 204 228 346 
582 196 197 198 
583 126 127 330 
584 366 231 367 
585 81 43 278 
586 160 331 382 
587 164 153 361 
588 256 311 350 
589 224 179 404 
590 106 16 422 
591 395 341 416 
592 257 255 387 
593 146 114 194 
594 176 207 311 
595 146 195 196 
596 236 210 384 
597 311 207 350 
598 372 201 417 
599 77 7 313 
600 55 77 314 
601 269 226 401 
602 328 298 390 
603 276 95 372 
604 113 114 115 
605 197 195 199 
606 231 259 260 
607 153 143 361 
608 238 322 368 
609 56 98 313 
610 99 54 314 
611 319 242 405 
612 198 197 201 
613 6 44 349 
614 91 74 261 
615 372 95 383 
616 45 46 334 
617 317 240 375 
618 241 317 341 
619 286 285 378 
620 331 302 382 
621 174 214 215 
622 162 170 355 
623 98 57 318 
624 53 99 321 
625 208 177 363 
626 5 68 340 
627 172 159 420 
628 231 215 259 
629 181 184 229 
630 213 290 382 
631 231 260 367 
632 281 327 419 
633 128 125 337 
634 110 84 296 
635 109 84 110 
636 190 191 385 
637 146 194 195 
638 115 114 146 
639 260 259 304 
640 58 83 318 
641 82 52 321 
642 207 227 350 
643 233 348 415 
644 306 208 363 
645 327 326 352 
646 65 66 88 
647 291 335 391 
648 326 172 352 
649 94 282 384 
650 310 130 356 
651 83 59 316 
652 51 82 320 
653 113 111 114 
654 196 195 197 
655 35 105 357 
656 366 265 381 
657 104 76 358 
658 218 220 347 
659 175 355 402 
660 60 100 316 
661 101 50 320 
662 194 114 364 
663 131 128 344 
664 227 208 354 
665 258 276 399 
666 384 282 425 
667 66 67 353 
668 139 134 351 
669 177 193 363 
670 44 45 89 
671 100 61 332 
672 49 101 328 
673 322 238 412 
674 174 164 214 
675 150 139 351 
676 249 303 386 
677 63 64 374 
678 262 261 343 
679 62 78 332 
680 79 48 328 
681 68 80 340 
682 98 318 319 
683 288 103 406 
684 312 25 393 
685 214 164 361 
686 134 330 351 
687 82 321 322 
688 185 190 362 
689 117 115 338 
690 67 5 102 
691 223 291 391 
692 342 277 360 
693 298 244 390 
694 83 316 317 
695 265 85 381 
696 337 123 398 
697 158 175 407 
698 47 79 333 
699 303 200 386 
700 146 196 338 
701 212 225 377 
702 128 337 344 
703 225 327 371 
704 199 195 389 
705 276 372 417 
706 26 107 393 
707 170 181 355 
708 112 113 418 
709 302 213 382 
710 243 171 370 
711 193 309 373 
712 110 297 364 
713 282 106 425 
714 115 146 338 
715 225 371 377 
716 130 345 398 
717 402 229 414 
718 274 247 413 
719 80 69 279 
720 119 117 356 
721 130 119 356 
722 355 229 402 
723 210 346 384 
724 242 319 396 
725 373 309 409 
726 16 4 422 
727 4 17 422 
728 380 106 422 
729 77 313 365 
730 263 367 379 
731 211 252 394 
732 227 329 411 
733 78 63 374 
734 275 230 381 
735 345 337 398 
736 147 158 407 
737 193 373 401 
738 111 110 364 
739 352 172 378 
740 345 130 424 
741 107 312 393 
742 377 267 408 
743 368 224 404 
744 81 278 305 
745 212 377 408 
746 92 366 367 
747 89 336 349 
748 324 106 380 
749 46 333 334 
750 114 111 364 
751 371 93 377 
752 307 216 395 
753 203 201 372 
754 373 269 401 
755 334 333 335 
756 121 130 398 
757 181 229 355 
758 336 278 349 
759 191 218 385 
760 357 105 387 
761 254 212 408 
762 130 310 424 
763 309 351 409 
764 253 233 415 
765 240 319 375 
766 367 260 379 
767 228 303 397 
768 332 307 416 
769 352 288 419 
770 201 197 417 
771 101 320 376 
772 123 121 398 
773 346 94 384 
774 218 347 385 
775 324 236 425 
776 341 100 416 
777 299 264 400 
778 117 338 356 
779 242 396 421 
780 390 244 392 
781 246 359 423 
782 318 83 375 
783 159 160 420 
784 350 227 411 
785 199 399 417 
786 44 89 349 
787 89 45 334 
788 96 350 411 
789 299 402 414 
790 348 145 415 
791 106 324 425 
792 319 318 375 
793 85 275 381 
794 351 330 409 
795 195 194 389 
796 243 370 410 
797 319 240 396 
798 83 317 375 
799 88 66 353 
800 220 246 423 
801 369 99 403 
802 98 319 405 
803 102 5 340 
804 330 300 409 
805 359 246 418 
806 203 372 383 
807 343 104 388 
808 82 322 412 
809 79 328 390 
810 67 102 353 
811 313 98 405 
812 365 313 405 
813 396 239 421 
814 347 274 385 
815 241 341 395 
816 359 155 423 
817 99 314 403 
818 234 368 404 
819 335 333 392 
820 363 193 401 
821 299 400 402 
822 406 281 419 
823 333 79 392 
824 197 199 417 
825 320 82 412 
826 399 276 417 
827 155 347 423 
828 347 220 423 
829 376 320 412 
830 327 352 419 
831 100 332 416 
832 370 237 410 
833 79 390 392 
834 388 258 399 
835 17 380 422 
836 242 365 405 
837 250 362 413 
838 238 376 412 
839 288 406 419 
$EndElements
