$MeshFormat
4.1 0 8
$EndMeshFormat
$PhysicalNames
5
1 1 "bottom"
1 2 "right"
1 3 "top"
1 4 "left"
2 5 "domain"
$EndPhysicalNames
$Entities
4 4 1 0
1 0 0 0 0 
2 10 0 0 0 
3 10 1 0 0 
4 0 1 0 0 
1 0 0 0 10 0 0 1 1 2 1 -2 
2 10 0 0 10 1 0 1 2 2 2 -3 
3 0 1 0 10 1 0 1 3 2 3 -4 
4 0 0 0 0 1 0 1 4 2 4 -1 
1 0 0 0 10 1 0 1 5 4 1 2 3 4 
$EndEntities
$Nodes
9 358 1 358
0 1 0 1
1
0 0 0
0 2 0 1
2
10 0 0
0 3 0 1
3
10 1 0
0 4 0 1
4
0 1 0
1 1 0 49
5
6
7
8
9
10
11
12
13
14
15
16
17
18
19
20
21
22
23
24
25
26
27
28
29
30
31
32
33
34
35
36
37
38
39
40
41
42
43
44
45
46
47
48
49
50
51
52
53
0.199999999999856 0 0
0.3999999999996677 0 0
0.5999999999994683 0 0
0.7999999999993286 0 0
0.9999999999991888 0 0
1.199999999999033 0 0
1.399999999998576 0 0
1.599999999997992 0 0
1.799999999997408 0 0
1.999999999996825 0 0
2.199999999996241 0 0
2.399999999995657 0 0
2.599999999995073 0 0
2.79999999999449 0 0
2.999999999993906 0 0
3.199999999993322 0 0
3.399999999992738 0 0
3.599999999992154 0 0
3.799999999991571 0 0
3.999999999991022 0 0
4.199999999991187 0 0
4.399999999991491 0 0
4.599999999991795 0 0
4.799999999992099 0 0
4.999999999992403 0 0
5.199999999992706 0 0
5.39999999999301 0 0
5.599999999993313 0 0
5.799999999993618 0 0
5.999999999993922 0 0
6.199999999994227 0 0
6.39999999999453 0 0
6.599999999994833 0 0
6.799999999995138 0 0
6.999999999995442 0 0
7.199999999995747 0 0
7.39999999999605 0 0
7.599999999996353 0 0
7.799999999996658 0 0
7.999999999996962 0 0
8.199999999997265 0 0
8.399999999997569 0 0
8.599999999997873 0 0
8.799999999998176 0 0
8.999999999998479 0 0
9.199999999998786 0 0
9.399999999999089 0 0
9.599999999999392 0 0
9.799999999999697 0 0
1 2 0 4
54
55
56
57
10 0.1999999999995579 0
10 0.3999999999989749 0
10 0.5999999999989468 0
10 0.7999999999994734 0
1 3 0 49
58
59
60
61
62
63
64
65
66
67
68
69
70
71
72
73
74
75
76
77
78
79
80
81
82
83
84
85
86
87
88
89
90
91
92
93
94
95
96
97
98
99
100
101
102
103
104
105
106
9.799999999999999 1 0
9.6 1 0
9.399999999999999 1 0
9.199999999999999 1 0
8.999999999999998 1 0
8.799999999999997 1 0
8.599999999999998 1 0
8.399999999999997 1 0
8.199999999999998 1 0
7.999999999999997 1 0
7.799999999999997 1 0
7.599999999999998 1 0
7.399999999999997 1 0
7.199999999999998 1 0
6.999999999999997 1 0
6.799999999999997 1 0
6.599999999999998 1 0
6.399999999999997 1 0
6.199999999999998 1 0
5.999999999999997 1 0
5.799999999999998 1 0
5.599999999999998 1 0
5.399999999999999 1 0
5.199999999999998 1 0
4.999999999999999 1 0
4.799999999999999 1 0
4.599999999999999 1 0
4.399999999999999 1 0
4.199999999999999 1 0
3.999999999999999 1 0
3.799999999999999 1 0
3.599999999999999 1 0
3.399999999999998 1 0
3.199999999999998 1 0
2.999999999999999 1 0
2.799999999999998 1 0
2.599999999999998 1 0
2.399999999999999 1 0
2.199999999999999 1 0
1.999999999999998 1 0
1.799999999999999 1 0
1.6 1 0
1.4 1 0
1.199999999999999 1 0
0.9999999999999982 1 0
0.7999999999999989 1 0
0.6000000000000014 1 0
0.3999999999999986 1 0
0.1999999999999993 1 0
1 4 0 4
107
108
109
110
0 0.7999999999999998 0
0 0.6000000000013869 0
0 0.4000000000016644 0
0 0.2000000000008322 0
2 1 0 248
111
112
113
114
115
116
117
118
119
120
121
122
123
124
125
126
127
128
129
130
131
132
133
134
135
136
137
138
139
140
141
142
143
144
145
146
147
148
149
150
151
152
153
154
155
156
157
158
159
160
161
162
163
164
165
166
167
168
169
170
171
172
173
174
175
176
177
178
179
180
181
182
183
184
185
186
187
188
189
190
191
192
193
194
195
196
197
198
199
200
201
202
203
204
205
206
207
208
209
210
211
212
213
214
215
216
217
218
219
220
221
222
223
224
225
226
227
228
229
230
231
232
233
234
235
236
237
238
239
240
241
242
243
244
245
246
247
248
249
250
251
252
253
254
255
256
257
258
259
260
261
262
263
264
265
266
267
268
269
270
271
272
273
274
275
276
277
278
279
280
281
282
283
284
285
286
287
288
289
290
291
292
293
294
295
296
297
298
299
300
301
302
303
304
305
306
307
308
309
310
311
312
313
314
315
316
317
318
319
320
321
322
323
324
325
326
327
328
329
330
331
332
333
334
335
336
337
338
339
340
341
342
343
344
345
346
347
348
349
350
351
352
353
354
355
356
357
358
1.499785894967328 0.1598762577323238 0
1.899999999997117 0.1732050807563821 0
2.299999999995949 0.1732050807563821 0
2.699999999994782 0.1732050807563821 0
1.077453484476665 0.1890458826031107 0
3.099999999993614 0.1732050807563819 0
0.6969229955824702 0.181318816886404 0
3.502661277977794 0.1683993841497806 0
3.899999999991265 0.1732050807564565 0
9.51734513094156 0.8207407750085456 0
9.09368058125675 0.8304434373556419 0
8.699999999999999 0.8344542701533176 0
8.302632962534361 0.8316190516073088 0
7.899999999999999 0.8267949192431125 0
7.499999999999996 0.8267949192431129 0
7.099999999999993 0.8267949192431125 0
6.699999999999994 0.8267949192431129 0
6.299999999999996 0.8267949192431129 0
5.899999999999999 0.8267949192431129 0
5.499999999999996 0.8267949192431129 0
5.099999999999997 0.8267949192431137 0
4.699999999999998 0.8267949192431121 0
4.300000000000001 0.8267949192431129 0
1.299999999999601 0.8347685369751738 0
0.9063194187432861 0.830443437355691 0
0.4826548690583304 0.8207407750092918 0
1.700000000000262 0.8267949192425208 0
2.100000000000346 0.8267949192425632 0
2.500000000000174 0.8267949192428432 0
9.301840399802662 0.1777086041434459 0
8.921638044584265 0.1867252724791293 0
2.899999999999999 0.8267949192431125 0
8.500194556743361 0.1627693833951032 0
8.099999999997078 0.1732050807571517 0
3.299999999999967 0.8267949192431545 0
7.699999999996512 0.1732050807571394 0
7.299999999996055 0.1732050807573645 0
3.699999999999924 0.8267949192431343 0
6.899999999995197 0.1732050807574003 0
6.499999999994579 0.1732050807573268 0
6.099999999994037 0.1732050807571528 0
5.699999999993477 0.1732050807571355 0
5.299999999992859 0.1732050807571391 0
4.899999999992244 0.1732050807571395 0
4.499999999991577 0.1732050807569062 0
9.827738658027071 0.5016346035215016 0
0.1722613419726281 0.5016346035238878 0
0.3183651238111402 0.1811394494887073 0
9.68163487618833 0.1811394494878512 0
9.83070291234365 0.6992518096414435 0
9.637177463527379 0.6313252741398012 0
9.653589838486729 0.3999999999990026 0
9.480384757729839 0.4999999999987136 0
9.485422972349033 0.2991455535522927 0
9.306545647740093 0.3948228548169416 0
9.307212842920679 0.5937151833470943 0
9.133974596215916 0.4999999999984406 0
9.120506871082789 0.298121432461154 0
8.959042538155167 0.3989593362653404 0
8.766350796593752 0.3391386016888445 0
8.799715481527377 0.5297051337273084 0
8.613029874253099 0.4642497995729027 0
0.1692970876555631 0.699251809643245 0
0.3628225364723363 0.6313252741415933 0
0.3464101615129308 0.4000000000017399 0
0.519615242269549 0.5000000000018834 0
0.512355641033687 0.2994054770996017 0
0.6922941682464022 0.3967873823324695 0
0.6928203230261951 0.6000000000020751 0
0.8630810780402524 0.5011218488836204 0
0.8781637018141752 0.3005885087816152 0
1.039230484540004 0.400000000002645 0
1.232587838527833 0.3406795228487249 0
1.200185478426512 0.5317599467824616 0
1.354553573427486 0.4678923662996377 0
4.099999999990859 0.1732050807564527 0
4.002661277976515 0.3448736719517477 0
4.200443546321898 0.3461540799196464 0
3.80576610229463 0.3398176112636649 0
4.100827454360508 0.517436996747318 0
4.299999999990768 0.5196152422698208 0
3.1 0.8267949192431558 0
3.199999999999988 0.6535898384863625 0
3.39999999999985 0.6535898384863472 0
3.299999999999914 0.4803847577295951 0
3.100000000000149 0.4803847577296214 0
3.501900912844702 0.4886319406797021 0
3.600316818807376 0.6582392935348449 0
3.000000000000055 0.6535898384863436 0
2.800000000000211 0.6535898384862109 0
2.900000000000359 0.4803847577295151 0
2.700000000000553 0.4803847577293938 0
2.600000000000397 0.6535898384859942 0
2.500000000000803 0.4803847577290953 0
2.400000000000557 0.6535898384857886 0
2.300000000001056 0.4803847577287852 0
2.200000000000914 0.6535898384852982 0
2.10000000000131 0.4803847577284734 0
2.000000000001167 0.6535898384849859 0
1.900000000001563 0.4803847577281618 0
1.800000000001418 0.6535898384846748 0
1.706879863395429 0.4908952628013119 0
1.608026507294548 0.6604120829148585 0
2.700000000000129 0.8267949192430266 0
2.300000000000236 0.8267949192427391 0
1.900000000000271 0.82679491924242 0
1.5 0.8267949192402928 0
1.101053236457143 0.835607157015145 0
1.021112315523848 0.6384649237821264 0
7.899999999996798 0.1732050807571331 0
7.799999999996648 0.3464101615142339 0
7.59999999999642 0.3464101615142277 0
7.699999999996519 0.5196152422713123 0
7.499999999996334 0.5196152422712984 0
7.899999999996703 0.5196152422713153 0
7.399999999996279 0.3464101615143028 0
7.299999999996166 0.5196152422713129 0
7.999999999996884 0.3464101615142506 0
8.199999999997114 0.3464101615143287 0
8.099999999996902 0.5196152422713894 0
8.295892201352451 0.5096138620805541 0
8.424262772247495 0.3523939564176046 0
8.304076221496647 0.1724630970140314 0
5.899999999993757 0.1732050807571337 0
5.7999999999936 0.3464101615142346 0
5.599999999993376 0.3464101615142349 0
5.699999999993465 0.5196152422713098 0
5.499999999993285 0.5196152422712998 0
5.899999999993644 0.5196152422713278 0
5.399999999993065 0.3464101615142388 0
5.299999999993113 0.5196152422713149 0
5.999999999993834 0.3464101615142569 0
6.199999999994064 0.3464101615143373 0
6.099999999993842 0.5196152422714123 0
6.29999999999406 0.5196152422714629 0
6.399999999994288 0.3464101615144535 0
6.499999999994236 0.5196152422716493 0
6.599999999994525 0.3464101615146172 0
6.699999999994407 0.5196152422718543 0
6.799999999994753 0.3464101615147564 0
6.899999999994579 0.5196152422720542 0
6.999999999995218 0.3464101615148758 0
7.099999999994756 0.5196152422722392 0
6.299999999994286 0.1732050807572117 0
7.099999999995681 0.1732050807573562 0
6.699999999994879 0.1732050807573937 0
4.699999999991936 0.1732050807570916 0
4.799999999992099 0.3464101615142271 0
4.999999999992331 0.3464101615142329 0
4.899999999992224 0.5196152422713135 0
4.699999999992043 0.519615242271312 0
5.099999999992407 0.519615242271312 0
5.199999999992711 0.3464101615142262 0
4.599999999991762 0.3464101615140532 0
4.499999999991859 0.5196152422713843 0
3.899999999999985 0.8300698437999261 0
3.802714081118527 0.6664623420628575 0
0.6942032221413962 0.7988367911991675 0
4.099999999999598 0.8286404920150862 0
3.500052803134518 0.8275698284179134 0
5.499999999993183 0.1732050807571247 0
5.099999999992519 0.1732050807571214 0
7.499999999996272 0.1732050807571171 0
9.305801515851032 0.7979389602480912 0
8.503071789623421 0.8313453852568626 0
5.700000000000006 0.8267949192431167 0
7.699999999999987 0.8267949192431129 0
7.300000000000012 0.8267949192431191 0
4.900000000000007 0.8267949192431233 0
4.499999999999998 0.8267949192431207 0
8.100159922408537 0.8294707341670937 0
5.300000000000001 0.8267949192431235 0
6.099999999999988 0.8267949192431254 0
8.898946763542792 0.8354239548412675 0
8.978206206891223 0.6377241417716937 0
6.500000000000004 0.8267949192431167 0
6.900000000000007 0.8267949192431344 0
3.704065841358609 0.1697688833858453 0
3.300161642241895 0.1705303855941774 0
2.499999999995365 0.1732050807563814 0
1.699981793787584 0.1687357518817766 0
2.899999999994199 0.1732050807563785 0
2.099999999996533 0.1732050807563807 0
4.300073924379678 0.1731624004910673 0
7.199999999995692 0.3464101615145752 0
4.400086245111256 0.3463603678704797 0
8.61302433621818 0.6465504711696753 0
1.386292105645808 0.6458123264446538 0
0.1649463266834537 0.3062764887211597 0
9.701818696973165 0.8336673026124326 0
0.2981813030266497 0.8336673026131315 0
9.83505367331645 0.3062764887194939 0
1.30142376463039 0.1653710778884684 0
8.698732230760085 0.1623208353323533 0
3.60239902241139 0.3322411739650273 0
3.901994819291674 0.5069773854871709 0
8.395696120440924 0.6669094978163559 0
1.607773683722197 0.3255240499048797 0
2.799999999995009 0.3267949192413362 0
2.599999999995582 0.3267949192413019 0
2.999999999994707 0.3267949192414561 0
8.199522211456898 0.6724570351928836 0
2.399999999996137 0.326794919241238 0
3.199999999993321 0.3267949192408747 0
2.199999999996688 0.3267949192411684 0
7.999999999999996 0.6732050807582556 0
7.79999999999998 0.6732050807582837 0
1.999999999997246 0.3267949192411022 0
7.599999999999681 0.6732050807581524 0
1.799999999997407 0.3267949192407756 0
3.401187142578169 0.3278304268931929 0
7.399999999999535 0.6732050807581015 0
7.199999999998405 0.6732050807578772 0
6.199999999999996 0.6732050807592286 0
6.399999999999996 0.6732050807592564 0
5.999999999999991 0.67320508075927 0
5.800000000000004 0.6732050807592884 0
6.600000000000006 0.6732050807593051 0
5.600000000000006 0.673205080759341 0
4.199999999990809 0.6732050807534871 0
6.800000000000016 0.6732050807593704 0
6.999999999997959 0.6732050807579646 0
5.39999999999999 0.6732050807593893 0
5.199999999999374 0.6732050807590794 0
4.999999999999302 0.6732050807592309 0
4.799999999999012 0.6732050807591072 0
4.599999999995504 0.6732050807569161 0
4.399999999992517 0.6732050807549124 0
3.701283312650301 0.4993679714454858 0
3.999999999999994 0.6732393858270129 0
0.8999999999992587 0.1352571219814423 0
0.5055287520852867 0.1323727486949426 0
9.493779649667703 0.131598721436718 0
9.460288568297697 0.6651923788639532 0
0.5397114317022021 0.665192378865505 0
8.797978557635913 0.6967715943326525 0
1.201728627210582 0.6972825781999121 0
9.099999999998628 0.1305125270636266 0
1.422900655941294 0.3272600963834123 0
9.163775148627121 0.6719643445441923 0
0.8355072714949954 0.673773400244536 0
8.60051404611956 0.2961745152813617 0
1.522082907419147 0.4914187754109772 0
8.459555432917142 0.5091231360255138 0
9.853589838485711 0.8535898384855651 0
9.853589838485886 0.1464101615139006 0
0.1464101615132679 0.8535898384867318 0
0.1464101615134875 0.1464101615137491 0
$EndNodes
$Elements
5 714 1 714
1 1 1 50
1 1 5 
2 5 6 
3 6 7 
4 7 8 
5 8 9 
6 9 10 
7 10 11 
8 11 12 
9 12 13 
10 13 14 
11 14 15 
12 15 16 
13 16 17 
14 17 18 
15 18 19 
16 19 20 
17 20 21 
18 21 22 
19 22 23 
20 23 24 
21 24 25 
22 25 26 
23 26 27 
24 27 28 
25 28 29 
26 29 30 
27 30 31 
28 31 32 
29 32 33 
30 33 34 
31 34 35 
32 35 36 
33 36 37 
34 37 38 
35 38 39 
36 39 40 
37 40 41 
38 41 42 
39 42 43 
40 43 44 
41 44 45 
42 45 46 
43 46 47 
44 47 48 
45 48 49 
46 49 50 
47 50 51 
48 51 52 
49 52 53 
50 53 2 
1 2 1 5
51 2 54 
52 54 55 
53 55 56 
54 56 57 
55 57 3 
1 3 1 50
56 3 58 
57 58 59 
58 59 60 
59 60 61 
60 61 62 
61 62 63 
62 63 64 
63 64 65 
64 65 66 
65 66 67 
66 67 68 
67 68 69 
68 69 70 
69 70 71 
70 71 72 
71 72 73 
72 73 74 
73 74 75 
74 75 76 
75 76 77 
76 77 78 
77 78 79 
78 79 80 
79 80 81 
80 81 82 
81 82 83 
82 83 84 
83 84 85 
84 85 86 
85 86 87 
86 87 88 
87 88 89 
88 89 90 
89 90 91 
90 91 92 
91 92 93 
92 93 94 
93 94 95 
94 95 96 
95 96 97 
96 97 98 
97 98 99 
98 99 100 
99 100 101 
100 101 102 
101 102 103 
102 103 104 
103 104 105 
104 105 106 
105 106 4 
1 4 1 5
106 4 107 
107 107 108 
108 108 109 
109 109 110 
110 110 1 
2 1 2 604
111 120 161 300 
112 174 136 301 
113 181 115 182 
114 161 120 344 
115 136 174 345 
116 141 168 169 
117 171 169 285 
118 182 184 219 
119 175 158 177 
120 159 162 164 
121 115 181 341 
122 169 167 285 
123 180 182 219 
124 168 141 348 
125 177 158 342 
126 159 164 343 
127 182 115 183 
128 349 308 353 
129 141 169 170 
130 184 185 298 
131 177 117 178 
132 140 164 165 
133 172 171 297 
134 185 349 353 
135 140 165 168 
136 172 232 352 
137 178 117 181 
138 184 298 347 
139 297 171 346 
140 161 160 300 
141 173 174 301 
142 274 166 344 
143 179 268 345 
144 232 172 354 
145 158 175 299 
146 162 159 302 
147 171 285 346 
148 219 184 347 
149 165 167 168 
150 182 183 184 
151 170 169 171 
152 168 167 169 
153 166 274 350 
154 268 179 351 
155 120 274 344 
156 268 136 345 
157 189 306 339 
158 118 305 321 
159 307 123 312 
160 184 183 185 
161 170 171 172 
162 117 177 342 
163 164 140 343 
164 99 100 217 
165 211 137 213 
166 253 252 295 
167 100 134 217 
168 137 99 217 
169 137 211 216 
170 227 253 295 
171 39 40 255 
172 207 138 209 
173 265 191 296 
174 209 138 216 
175 264 265 296 
176 138 207 215 
177 97 98 216 
178 250 149 252 
179 211 209 216 
180 213 137 217 
181 205 139 215 
182 149 39 255 
183 40 147 255 
184 252 255 295 
185 149 250 256 
186 203 139 205 
187 148 198 267 
188 98 137 216 
189 138 97 216 
190 241 262 263 
191 95 96 215 
192 153 240 263 
193 207 205 215 
194 240 241 263 
195 37 38 256 
196 139 203 214 
197 150 246 254 
198 248 150 256 
199 246 150 248 
200 93 94 214 
201 252 149 255 
202 143 232 233 
203 139 95 215 
204 96 138 215 
205 198 148 270 
206 142 93 214 
207 55 56 156 
208 94 139 214 
209 150 37 256 
210 38 149 256 
211 201 200 202 
212 196 193 199 
213 250 248 256 
214 199 200 201 
215 244 243 245 
216 196 199 201 
217 193 192 199 
218 153 263 272 
219 226 147 273 
220 36 150 254 
221 148 89 270 
222 240 153 271 
223 46 143 233 
224 188 186 294 
225 192 142 199 
226 230 229 231 
227 264 261 265 
228 242 243 244 
229 92 142 192 
230 153 31 271 
231 52 53 159 
232 258 261 264 
233 239 235 242 
234 228 229 230 
235 225 221 228 
236 134 101 218 
237 108 109 157 
238 9 10 115 
239 194 193 195 
240 145 192 193 
241 239 242 244 
242 45 46 233 
243 257 258 264 
244 155 264 296 
245 147 41 273 
246 266 148 267 
247 35 36 254 
248 235 234 242 
249 220 144 228 
250 234 151 242 
251 221 220 228 
252 225 228 230 
253 155 257 264 
254 30 153 272 
255 195 193 196 
256 186 25 294 
257 34 151 234 
258 145 194 270 
259 44 144 220 
260 88 148 266 
261 199 142 200 
262 194 198 270 
263 145 193 194 
264 155 27 257 
265 145 91 192 
266 218 135 219 
267 246 243 254 
268 135 103 268 
269 194 195 197 
270 232 229 233 
271 222 221 223 
272 236 235 237 
273 258 259 260 
274 242 151 243 
275 96 97 138 
276 92 93 142 
277 100 101 134 
278 90 91 145 
279 94 95 139 
280 98 99 137 
281 258 260 261 
282 228 144 229 
283 257 154 258 
284 180 181 182 
285 88 89 148 
286 146 220 221 
287 102 135 218 
288 152 234 235 
289 180 178 181 
290 237 235 239 
291 236 237 238 
292 223 221 225 
293 200 142 214 
294 222 223 224 
295 260 259 262 
296 146 221 222 
297 258 154 259 
298 202 203 204 
299 259 154 272 
300 152 235 236 
301 146 43 220 
302 152 33 234 
303 263 259 272 
304 28 154 257 
305 31 32 271 
306 91 92 192 
307 24 25 186 
308 151 35 254 
309 87 266 269 
310 33 34 234 
311 144 45 233 
312 102 103 135 
313 101 102 218 
314 30 31 153 
315 46 47 143 
316 87 88 266 
317 26 27 155 
318 34 35 151 
319 38 39 149 
320 32 33 152 
321 42 43 146 
322 204 205 206 
323 36 37 150 
324 40 41 147 
325 43 44 220 
326 104 136 268 
327 44 45 144 
328 28 29 154 
329 206 207 208 
330 48 49 141 
331 50 51 140 
332 208 209 210 
333 222 226 273 
334 146 222 273 
335 27 28 257 
336 245 243 246 
337 245 246 247 
338 202 200 203 
339 103 104 268 
340 104 105 136 
341 231 229 232 
342 210 211 212 
343 251 252 253 
344 226 224 227 
345 240 238 241 
346 249 250 251 
347 179 178 180 
348 247 248 249 
349 5 6 158 
350 90 145 270 
351 7 8 117 
352 86 87 269 
353 29 30 272 
354 89 90 270 
355 243 151 254 
356 229 144 233 
357 41 42 273 
358 154 29 272 
359 236 238 240 
360 32 152 271 
361 236 240 271 
362 262 259 263 
363 222 224 226 
364 152 236 271 
365 247 246 248 
366 251 250 252 
367 249 248 250 
368 42 146 273 
369 176 175 177 
370 176 177 178 
371 59 60 120 
372 133 86 269 
373 60 61 274 
374 204 203 205 
375 61 62 121 
376 165 163 166 
377 176 178 179 
378 156 161 162 
379 208 207 209 
380 69 70 125 
381 67 68 124 
382 206 205 207 
383 81 82 131 
384 165 166 167 
385 194 197 198 
386 63 64 122 
387 65 66 123 
388 73 74 127 
389 75 76 128 
390 77 78 129 
391 79 80 130 
392 85 86 133 
393 68 69 277 
394 210 209 211 
395 71 72 126 
396 83 84 132 
397 56 57 160 
398 78 79 276 
399 74 75 286 
400 70 71 278 
401 84 85 280 
402 212 211 213 
403 80 81 282 
404 82 83 279 
405 120 60 274 
406 76 77 283 
407 156 160 161 
408 23 24 119 
409 64 65 275 
410 71 126 278 
411 124 68 277 
412 66 67 281 
413 72 73 287 
414 123 66 281 
415 79 130 276 
416 61 121 274 
417 75 128 286 
418 22 23 288 
419 19 20 116 
420 21 22 118 
421 83 132 279 
422 11 12 111 
423 13 14 112 
424 16 17 290 
425 15 16 113 
426 17 18 114 
427 12 13 291 
428 128 76 283 
429 14 15 293 
430 73 127 287 
431 62 63 284 
432 20 21 289 
433 81 131 282 
434 18 19 292 
435 132 84 280 
436 85 133 280 
437 65 123 275 
438 130 80 282 
439 69 125 277 
440 129 78 276 
441 121 284 285 
442 127 74 286 
443 131 82 279 
444 121 62 284 
445 77 129 283 
446 122 64 275 
447 125 70 278 
448 63 122 284 
449 174 175 176 
450 119 187 189 
451 126 72 287 
452 67 124 281 
453 203 200 214 
454 191 188 296 
455 23 119 288 
456 190 188 191 
457 21 118 289 
458 17 114 290 
459 118 22 288 
460 13 112 291 
461 112 14 293 
462 111 12 291 
463 114 18 292 
464 15 113 293 
465 113 16 290 
466 19 116 292 
467 116 20 289 
468 187 188 190 
469 26 155 294 
470 164 163 165 
471 119 189 288 
472 174 157 175 
473 162 163 164 
474 147 226 295 
475 188 294 296 
476 156 56 160 
477 162 161 163 
478 119 24 186 
479 119 186 187 
480 255 147 295 
481 187 186 188 
482 25 26 294 
483 294 155 296 
484 226 227 295 
485 173 157 174 
486 108 157 173 
487 107 108 173 
488 183 115 303 
489 141 170 304 
490 213 217 298 
491 109 110 299 
492 58 59 300 
493 105 106 301 
494 175 157 299 
495 54 55 302 
496 156 162 302 
497 122 275 297 
498 305 197 321 
499 306 267 339 
500 231 307 312 
501 217 134 298 
502 115 10 303 
503 11 111 303 
504 181 117 341 
505 143 47 304 
506 48 141 304 
507 118 288 305 
508 189 187 306 
509 275 123 307 
510 198 197 339 
511 266 267 340 
512 140 168 348 
513 157 109 299 
514 59 120 300 
515 136 105 301 
516 55 156 302 
517 213 298 353 
518 9 115 341 
519 117 8 341 
520 232 143 352 
521 7 117 342 
522 158 6 342 
523 52 159 343 
524 140 51 343 
525 163 161 344 
526 174 176 345 
527 285 284 346 
528 218 219 347 
529 50 140 348 
530 141 49 348 
531 135 268 351 
532 274 121 350 
533 298 185 353 
534 57 3 355 
535 3 58 355 
536 2 54 356 
537 53 2 356 
538 4 107 357 
539 110 1 358 
540 1 5 358 
541 106 4 357 
542 10 11 303 
543 47 48 304 
544 197 305 339 
545 267 306 340 
546 288 189 305 
547 187 190 306 
548 122 297 346 
549 172 297 354 
550 298 134 347 
551 190 330 340 
552 337 280 338 
553 265 337 338 
554 133 269 330 
555 280 133 338 
556 197 195 321 
557 195 196 314 
558 196 201 311 
559 201 202 309 
560 195 314 321 
561 133 330 338 
562 196 311 314 
563 262 241 334 
564 202 204 310 
565 201 309 311 
566 265 261 337 
567 309 202 310 
568 261 260 336 
569 204 206 313 
570 260 262 335 
571 261 336 337 
572 310 204 313 
573 260 335 336 
574 206 208 315 
575 262 334 335 
576 253 227 323 
577 241 238 333 
578 238 237 329 
579 237 239 327 
580 313 206 315 
581 241 333 334 
582 239 244 326 
583 238 329 333 
584 208 210 318 
585 244 245 324 
586 237 327 329 
587 239 326 327 
588 245 247 325 
589 315 208 318 
590 244 324 326 
591 324 245 325 
592 210 212 320 
593 247 249 328 
594 325 247 328 
595 318 210 320 
596 249 251 331 
597 328 249 331 
598 111 291 308 
599 251 253 332 
600 331 251 332 
601 227 224 322 
602 224 223 319 
603 223 225 317 
604 227 322 323 
605 225 230 316 
606 224 319 322 
607 230 231 312 
608 223 317 319 
609 225 316 317 
610 230 312 316 
611 253 323 332 
612 308 291 320 
613 212 308 320 
614 114 292 309 
615 123 281 312 
616 290 114 310 
617 292 116 311 
618 114 309 310 
619 113 290 313 
620 309 292 311 
621 312 281 316 
622 281 124 316 
623 124 277 317 
624 290 310 313 
625 316 124 317 
626 116 289 314 
627 293 113 315 
628 311 116 314 
629 113 313 315 
630 112 293 318 
631 317 277 319 
632 277 125 319 
633 293 315 318 
634 291 112 320 
635 314 289 321 
636 289 118 321 
637 125 278 322 
638 112 318 320 
639 319 125 322 
640 278 126 323 
641 322 278 323 
642 323 126 332 
643 191 265 338 
644 128 283 324 
645 286 128 325 
646 324 283 326 
647 128 324 325 
648 283 129 326 
649 129 276 327 
650 286 325 328 
651 127 286 328 
652 326 129 327 
653 276 130 329 
654 327 276 329 
655 287 127 331 
656 190 191 330 
657 127 328 331 
658 329 130 333 
659 126 287 332 
660 130 282 333 
661 287 331 332 
662 282 131 334 
663 333 282 334 
664 334 131 335 
665 131 279 335 
666 279 132 336 
667 336 132 337 
668 335 279 336 
669 132 280 337 
670 330 191 338 
671 330 269 340 
672 267 198 339 
673 269 266 340 
674 297 275 307 
675 297 307 354 
676 111 308 349 
677 285 167 350 
678 180 219 351 
679 305 189 339 
680 306 190 340 
681 303 111 349 
682 167 166 350 
683 179 180 351 
684 143 304 352 
685 8 9 341 
686 6 7 342 
687 51 52 343 
688 231 232 354 
689 166 163 344 
690 176 179 345 
691 284 122 346 
692 134 218 347 
693 185 183 349 
694 49 50 348 
695 170 172 352 
696 121 285 350 
697 219 135 351 
698 308 212 353 
699 301 106 357 
700 299 110 358 
701 54 302 356 
702 58 300 355 
703 212 213 353 
704 183 303 349 
705 159 53 356 
706 160 57 355 
707 5 158 358 
708 107 173 357 
709 304 170 352 
710 158 299 358 
711 173 301 357 
712 300 160 355 
713 302 159 356 
714 307 231 354 
$EndElements
